<svg width="1732" height="404" viewBox="0 0 1732 404" fill="none" xmlns="http://www.w3.org/2000/svg">
<path d="M1618.36 172.627C1613.68 173.883 1609 175.013 1604.44 176.143C1051.6 317.183 625.72 343.432 466.24 348.204H500.32C942.64 336.775 1355.32 269.96 1732 170.617V142.234C1703.2 150.272 1674.64 157.933 1646.56 165.343C1637.08 167.854 1627.72 170.241 1618.36 172.627Z" fill="#35377F"/>
<path d="M497.469 341.364H463.31C621.836 336.604 1043.41 310.798 1591.16 173.125C1043.41 310.798 621.836 336.604 463.31 341.239C461.506 341.364 459.822 341.364 458.018 341.364C413.756 341.364 370.816 324.703 335.334 295.64C289.388 258.059 245.126 217.972 202.548 176.507C244.765 217.722 288.667 257.558 334.252 294.889C211.929 207.199 98.8683 103.224 0 0V341.364V404H1732V341.364V164.231C1354.45 263.32 940.813 329.965 497.469 341.364Z" fill="white"/>
</svg>
